<svg width="136" height="20" viewBox="0 0 136 20" fill="none" xmlns="http://www.w3.org/2000/svg">
<path d="M7.46159 19.9986C9.18216 20.024 10.8549 19.4638 12.1739 18.4207C12.3099 18.3244 12.4232 18.2025 12.5065 18.0626C12.5898 17.9228 12.6413 17.768 12.6578 17.6083C12.6775 17.4449 12.6615 17.2794 12.6108 17.1221C12.56 16.9647 12.4757 16.8188 12.3629 16.6935C12.2555 16.5709 12.1235 16.4697 11.9745 16.3956C11.8254 16.3215 11.6623 16.276 11.4945 16.2617C11.3267 16.2475 11.1576 16.2648 10.9969 16.3126C10.8362 16.3604 10.6872 16.4378 10.5584 16.5404C9.68317 17.209 8.58747 17.5671 7.46159 17.5527C6.12098 17.5527 4.95598 17.1199 4.01353 16.2063C3.04292 15.3205 2.58577 14.2222 2.58577 12.9518C2.57348 12.3427 2.69387 11.7378 2.93947 11.1745C3.18507 10.6112 3.55064 10.1015 4.01353 9.67699C4.46106 9.24306 4.99767 8.89985 5.59054 8.66836C6.1834 8.43686 6.82007 8.32195 7.46159 8.33063C8.53415 8.33123 9.57669 8.66499 10.4283 9.28039C11.28 9.89579 11.8934 10.7586 12.1739 11.7357H7.46159C7.28829 11.7305 7.11563 11.7581 6.95388 11.8171C6.79212 11.8761 6.64458 11.9651 6.52001 12.079C6.39545 12.1928 6.2964 12.3291 6.22876 12.4798C6.16111 12.6305 6.12626 12.7925 6.12626 12.9562C6.12626 13.1199 6.16111 13.2818 6.22876 13.4325C6.2964 13.5832 6.39545 13.7196 6.52001 13.8334C6.64458 13.9473 6.79212 14.0363 6.95388 14.0953C7.11563 14.1542 7.28829 14.1819 7.46159 14.1766H13.6539C13.9936 14.1671 14.3166 14.0356 14.557 13.8089C14.7975 13.5822 14.9372 13.2774 14.9476 12.9568C14.9476 10.9993 14.1928 9.34672 12.7396 7.97506C11.2864 6.6034 9.53553 5.88973 7.46159 5.88973C5.38766 5.88973 3.63681 6.60214 2.18224 7.97506C1.47692 8.62041 0.919411 9.39552 0.544232 10.2524C0.169052 11.1093 -0.0158188 12.0298 0.00105991 12.9568C-0.0156048 13.884 0.169359 14.8046 0.54452 15.6617C0.919681 16.5188 1.47707 17.2941 2.18224 17.9399C2.86622 18.6056 3.68765 19.1319 4.59573 19.486C5.50381 19.8401 6.47921 20.0146 7.46159 19.9986Z" fill="#9A098B"/>
<path d="M32.9494 6.72867C32.8095 6.54669 32.6256 6.39878 32.4131 6.29717C32.2176 6.21665 32.0071 6.17364 31.7938 6.17064C31.5586 6.17946 31.3289 6.2406 31.1235 6.34906C30.9197 6.44783 30.7579 6.60948 30.665 6.80712L26.0331 16.3379L21.3423 6.80585C21.2418 6.61352 21.0826 6.45398 20.8852 6.34779C20.6966 6.24295 20.4843 6.18181 20.2658 6.16937C20.0693 6.16912 19.8755 6.21246 19.7001 6.29591C19.1866 6.54898 18.9453 6.88051 18.9453 7.33857C18.9363 7.49722 18.9734 7.65517 19.0525 7.79537L24.7636 19.1571C24.9231 19.4634 25.0853 19.6911 25.2998 19.8189C25.5249 19.9516 25.7885 20.0141 26.0532 19.9973C26.5895 19.9973 27.0225 19.7164 27.292 19.1571L33.0003 7.79537C33.0827 7.64571 33.1285 7.48055 33.1344 7.312C33.1271 7.10575 33.0634 6.90479 32.9494 6.72867Z" fill="#950A7E"/>
<path d="M45.397 19.9986C47.1176 20.0242 48.7905 19.464 50.1093 18.4207C50.2456 18.3246 50.359 18.2027 50.4424 18.0628C50.5257 17.9229 50.5771 17.7681 50.5933 17.6083C50.6133 17.4449 50.5974 17.2793 50.5467 17.1219C50.4959 16.9645 50.4114 16.8186 50.2983 16.6934C50.1946 16.5683 50.0642 16.4651 49.9154 16.3908C49.7666 16.3164 49.6029 16.2725 49.435 16.2619C49.2666 16.2435 49.096 16.2588 48.9343 16.3068C48.7726 16.3547 48.6235 16.4343 48.4965 16.5403C47.6214 17.2091 46.5256 17.5673 45.3997 17.5526C44.0524 17.5526 42.8941 17.1199 41.9516 16.2063C40.9824 15.3205 40.5252 14.2222 40.5252 12.9517C40.5212 12.3453 40.6443 11.744 40.8875 11.1827C41.1307 10.6213 41.4891 10.1109 41.9422 9.68092C42.3953 9.25091 42.9341 8.90976 43.5275 8.67714C44.1209 8.44452 44.7572 8.32503 45.3997 8.32554C46.4724 8.32572 47.5151 8.65931 48.3669 9.27478C49.2186 9.89024 49.8319 10.7533 50.112 11.7307H45.397C45.2237 11.7254 45.0511 11.7531 44.8893 11.812C44.7276 11.871 44.58 11.96 44.4554 12.0739C44.3309 12.1877 44.2318 12.3241 44.1642 12.4747C44.0966 12.6254 44.0617 12.7874 44.0617 12.9511C44.0617 13.1148 44.0966 13.2768 44.1642 13.4275C44.2318 13.5782 44.3309 13.7145 44.4554 13.8283C44.58 13.9422 44.7276 14.0312 44.8893 14.0902C45.0511 14.1492 45.2237 14.1768 45.397 14.1716H51.592C51.9312 14.1614 52.2536 14.0296 52.4935 13.803C52.7333 13.5763 52.8726 13.2719 52.883 12.9517C52.883 10.9942 52.1296 9.34163 50.675 7.96997C49.2205 6.59831 47.471 5.88464 45.397 5.88464C43.3231 5.88464 41.5736 6.59704 40.1177 7.96997C39.4124 8.61623 38.8553 9.39231 38.4808 10.2501C38.1063 11.1079 37.9224 12.0292 37.9405 12.9568C37.9239 13.884 38.1088 14.8046 38.484 15.6617C38.8591 16.5187 39.4165 17.2941 40.1217 17.9398C40.8054 18.6049 41.6262 19.1308 42.5335 19.4849C43.4408 19.839 44.4154 20.0138 45.397 19.9986Z" fill="#96176F"/>
<path d="M71.9507 19.9986C72.1311 20.001 72.3101 19.9685 72.4768 19.9033C72.6435 19.838 72.7943 19.7412 72.9199 19.619C73.046 19.4992 73.1446 19.3561 73.2094 19.1986C73.2742 19.0412 73.3039 18.8729 73.2966 18.7041V12.1698C73.2989 11.318 73.1229 10.4742 72.7786 9.68693C72.4344 8.89961 71.9287 8.18427 71.2906 7.582C70.6525 6.97973 69.8946 6.5024 69.0605 6.17746C68.2263 5.85252 67.3324 5.68636 66.43 5.68853C65.5225 5.6741 64.6216 5.8358 63.7831 6.16361C62.9446 6.49142 62.1864 6.97834 61.5555 7.59417C60.9052 8.18624 60.3902 8.89781 60.0425 9.68499C59.6948 10.4722 59.5217 11.3182 59.5339 12.171V18.7029C59.5313 18.8732 59.5657 19.0422 59.6349 19.1995C59.704 19.3568 59.8065 19.4991 59.9361 19.6177C60.0587 19.7341 60.2051 19.8258 60.3664 19.8871C60.5278 19.9485 60.7006 19.9782 60.8745 19.9746C61.0524 19.981 61.2297 19.9526 61.3954 19.8913C61.5611 19.8299 61.7117 19.737 61.8375 19.6182C61.9634 19.4994 62.0619 19.3573 62.1269 19.2009C62.1918 19.0445 62.2219 18.8771 62.2151 18.7092V12.1698C62.2124 11.6528 62.3208 11.1407 62.5337 10.6644C62.7466 10.1881 63.0596 9.75748 63.4538 9.39859C63.8406 9.02767 64.3016 8.7331 64.8102 8.53202C65.3187 8.33095 65.8646 8.22739 66.4159 8.22739C66.9673 8.22739 67.5131 8.33095 68.0217 8.53202C68.5302 8.7331 68.9913 9.02767 69.378 9.39859C69.7678 9.75908 70.0758 10.1907 70.2832 10.6671C70.4906 11.1435 70.5932 11.6547 70.5846 12.1698V18.7218C70.593 19.0555 70.7368 19.3734 70.9862 19.61C71.2356 19.8466 71.5717 19.9839 71.9252 19.9935L71.9507 19.9986Z" fill="#AC1C70"/>
<path d="M87.7699 17.4565C87.0221 17.4505 86.3067 17.1674 85.7781 16.6682C85.2494 16.169 84.9498 15.4936 84.9439 14.7878V8.814H87.3395C87.4994 8.8166 87.6582 8.78869 87.8063 8.73194C87.9544 8.67519 88.0889 8.59076 88.2016 8.48374C88.3142 8.37657 88.4031 8.24934 88.4632 8.10944C88.5233 7.96955 88.5533 7.81978 88.5515 7.66884C88.5527 7.51895 88.5224 7.37034 88.4622 7.23163C88.402 7.09293 88.3131 6.96692 88.2009 6.86093C88.0886 6.75494 87.9551 6.6711 87.8081 6.61429C87.6612 6.55748 87.5037 6.52882 87.3449 6.53H84.9439V2.94141C84.9459 2.77547 84.9112 2.61095 84.842 2.45841C84.7727 2.30588 84.6704 2.16869 84.5417 2.05565C84.4219 1.93421 84.2765 1.83771 84.1149 1.77234C83.9533 1.70698 83.779 1.67418 83.6032 1.67604C83.4228 1.67336 83.2436 1.70567 83.0769 1.77096C82.9102 1.83626 82.7594 1.93315 82.634 2.05565C82.5082 2.16968 82.4095 2.30758 82.3443 2.46026C82.2791 2.61294 82.249 2.77694 82.2559 2.94141V14.7878C82.2559 16.1698 82.8376 17.4952 83.8729 18.4724C84.9082 19.4496 86.3124 19.9986 87.7766 19.9986C87.9508 20.0046 88.1243 19.9759 88.286 19.9144C88.4477 19.8529 88.5939 19.76 88.715 19.6418C88.8444 19.5231 88.9468 19.3808 89.016 19.2235C89.0851 19.0662 89.1196 18.8972 89.1172 18.7269C89.1074 18.3942 88.963 18.0777 88.7137 17.8424C88.4644 17.6071 88.129 17.4708 87.7766 17.4615L87.7699 17.4565Z" fill="#CC226C"/>
<path d="M101.971 2.53529C102.145 2.5415 102.318 2.51317 102.48 2.45214C102.642 2.39111 102.788 2.29874 102.909 2.18099C103.039 2.06226 103.141 1.91991 103.21 1.76262C103.279 1.60534 103.314 1.4364 103.312 1.26612C103.313 1.10026 103.278 0.935908 103.209 0.783449C103.14 0.630991 103.038 0.493739 102.909 0.380366C102.79 0.258982 102.644 0.162528 102.483 0.097165C102.321 0.0318016 102.147 -0.0010343 101.971 0.00075458C101.244 -0.0111558 100.522 0.118043 99.8506 0.380336C99.1789 0.642629 98.5714 1.03242 98.0658 1.52553C97.5467 2.00474 97.1364 2.57867 96.8598 3.21237C96.5832 3.84606 96.4462 4.52627 96.4571 5.21155V18.7282C96.4503 18.8961 96.4803 19.0635 96.5453 19.2199C96.6103 19.3764 96.7088 19.5184 96.8346 19.6372C96.9605 19.756 97.111 19.849 97.2767 19.9103C97.4425 19.9716 97.6198 20 97.7977 19.9936C97.9719 19.9997 98.1455 19.9711 98.3072 19.9096C98.4689 19.8481 98.615 19.7552 98.7361 19.6368C98.8655 19.5184 98.968 19.3763 99.0371 19.2192C99.1063 19.0621 99.1407 18.8933 99.1383 18.7232V8.78875H101.83C101.989 8.79027 102.147 8.76186 102.294 8.70516C102.441 8.64847 102.575 8.56464 102.687 8.45859C102.799 8.35253 102.888 8.22638 102.948 8.08752C103.008 7.94867 103.038 7.79989 103.037 7.64992C103.039 7.49989 103.009 7.35104 102.949 7.21211C102.889 7.07317 102.8 6.94695 102.687 6.84086C102.575 6.73477 102.441 6.65095 102.294 6.59432C102.147 6.53769 101.989 6.50939 101.83 6.51108H99.1437V5.20522C99.1496 4.49907 99.4494 3.82341 99.9783 3.32395C100.507 2.82449 101.223 2.54124 101.971 2.53529Z" fill="#D92A6E"/>
<path d="M109.622 0.500491C109.496 0.620378 109.398 0.763517 109.333 0.920942C109.269 1.07837 109.239 1.24669 109.247 1.41535V15.2965C109.225 16.1352 109.399 16.9681 109.757 17.7361C110.054 18.4122 110.549 18.9944 111.184 19.414C111.802 19.8111 112.536 20.0155 113.283 19.9986H113.337C113.873 19.9986 114.306 19.8961 114.656 19.6417C114.814 19.5401 114.943 19.4037 115.032 19.2443C115.121 19.0848 115.168 18.9072 115.168 18.7269C115.167 18.3929 115.043 18.0696 114.818 17.812C114.711 17.6974 114.578 17.6063 114.429 17.5449C114.281 17.4835 114.12 17.4533 113.958 17.4565H113.287C112.882 17.4565 112.559 17.2532 112.317 16.8465C112.048 16.4391 111.94 15.9304 111.94 15.2965V1.41662C111.943 1.07685 111.807 0.749006 111.562 0.500491C111.298 0.270202 110.952 0.143096 110.593 0.144922C110.414 0.139378 110.236 0.168019 110.069 0.229123C109.902 0.290227 109.75 0.382533 109.622 0.500491Z" fill="#EA347F"/>
<path d="M128.566 5.96563C127.096 5.96563 125.659 6.37714 124.436 7.14813C123.214 7.91911 122.261 9.01493 121.698 10.297C121.136 11.5791 120.989 12.9899 121.275 14.351C121.562 15.712 122.27 16.9622 123.31 17.9435C124.349 18.9248 125.674 19.593 127.116 19.8638C128.558 20.1345 130.053 19.9956 131.411 19.4645C132.769 18.9334 133.93 18.0341 134.747 16.8803C135.564 15.7264 136 14.3698 136 12.9821C136 11.1213 135.216 9.33686 133.822 8.02108C132.428 6.70531 130.538 5.96597 128.566 5.96563ZM128.566 17.4261C127.635 17.4261 126.725 17.1655 125.951 16.6771C125.176 16.1888 124.573 15.4948 124.216 14.6828C123.86 13.8707 123.767 12.9772 123.948 12.1151C124.13 11.2531 124.579 10.4612 125.237 9.83975C125.896 9.21824 126.734 8.795 127.648 8.62352C128.561 8.45205 129.508 8.54006 130.368 8.87641C131.228 9.21277 131.964 9.78236 132.481 10.5132C132.998 11.244 133.275 12.1032 133.275 12.9821C133.275 13.5657 133.153 14.1436 132.916 14.6828C132.68 15.2219 132.333 15.7118 131.896 16.1245C131.458 16.5371 130.939 16.8645 130.368 17.0878C129.797 17.3111 129.185 17.4261 128.566 17.4261Z" fill="url(#paint0_linear_1431_64)"/>
<path d="M127.83 7.93708C126.626 7.93683 125.449 8.27361 124.448 8.90485C123.446 9.53608 122.666 10.4334 122.205 11.4833C121.744 12.5333 121.623 13.6886 121.858 14.8033C122.093 15.9181 122.672 16.942 123.524 17.7457C124.375 18.5495 125.46 19.0969 126.641 19.3187C127.822 19.5405 129.046 19.4268 130.158 18.9919C131.271 18.557 132.222 17.8206 132.891 16.8756C133.56 15.9306 133.917 14.8196 133.917 13.6831C133.917 12.1594 133.275 10.6981 132.134 9.6205C130.993 8.54295 129.445 7.93741 127.83 7.93708ZM128.572 17.4274C127.64 17.4274 126.73 17.1667 125.956 16.6784C125.182 16.1901 124.578 15.496 124.222 14.684C123.865 13.872 123.772 12.9784 123.954 12.1164C124.136 11.2544 124.584 10.4625 125.242 9.84101C125.901 9.2195 126.74 8.79626 127.653 8.62478C128.566 8.45331 129.513 8.54132 130.373 8.87767C131.234 9.21403 131.969 9.78362 132.486 10.5144C133.004 11.2452 133.28 12.1044 133.28 12.9834C133.28 13.5673 133.158 14.1454 132.921 14.6848C132.684 15.2241 132.336 15.7141 131.898 16.1267C131.461 16.5393 130.941 16.8664 130.369 17.0894C129.798 17.3123 129.185 17.4268 128.566 17.4261L128.572 17.4274Z" fill="url(#paint1_linear_1431_64)"/>
<defs>
<linearGradient id="paint0_linear_1431_64" x1="19.9647" y1="17.0712" x2="24.0362" y2="-10.615" gradientUnits="userSpaceOnUse">
<stop stop-color="#EA347F"/>
<stop offset="0.19" stop-color="#E23080"/>
<stop offset="0.5" stop-color="#CC2484"/>
<stop offset="0.87" stop-color="#A81189"/>
<stop offset="1" stop-color="#9A098B"/>
</linearGradient>
<linearGradient id="paint1_linear_1431_64" x1="124.165" y1="18.2726" x2="126.926" y2="14.3914" gradientUnits="userSpaceOnUse">
<stop stop-color="#9A098B"/>
<stop offset="0.13" stop-color="#A81189"/>
<stop offset="0.5" stop-color="#CC2484"/>
<stop offset="0.81" stop-color="#E23080"/>
<stop offset="1" stop-color="#EA347F"/>
</linearGradient>
</defs>
</svg>
