<svg width="20" height="20" viewBox="0 0 20 20" fill="none" xmlns="http://www.w3.org/2000/svg">
<path d="M17.5 10C17.5 14.1421 14.1421 17.5 10 17.5M17.5 10C17.5 5.85786 14.1421 2.5 10 2.5M17.5 10H2.5M10 17.5C5.85786 17.5 2.5 14.1421 2.5 10M10 17.5C10 17.5 13.3333 15 13.3333 10C13.3333 5 10 2.5 10 2.5M10 17.5C10 17.5 6.66667 15 6.66667 10C6.66667 5 10 2.5 10 2.5M2.5 10C2.5 5.85786 5.85786 2.5 10 2.5" stroke="url(#paint0_linear_1431_45)" stroke-width="1.5"/>
<defs>
<linearGradient id="paint0_linear_1431_45" x1="4.70199" y1="15.3034" x2="15.3088" y2="4.69657" gradientUnits="userSpaceOnUse">
<stop stop-color="#EA347F"/>
<stop offset="0.19" stop-color="#E23080"/>
<stop offset="0.5" stop-color="#CC2484"/>
<stop offset="0.87" stop-color="#A81189"/>
<stop offset="1" stop-color="#9A098B"/>
</linearGradient>
</defs>
</svg>
