<svg width="20" height="20" viewBox="0 0 20 20" fill="none" xmlns="http://www.w3.org/2000/svg">
<path d="M16.6673 9.16667C16.6673 12.8486 13.6825 15.8333 10.0007 17.5C6.31875 15.8333 3.33398 12.8486 3.33398 9.16667C3.33398 5.48477 6.31875 2.5 10.0007 2.5C13.6825 2.5 16.6673 5.48477 16.6673 9.16667Z" stroke="url(#paint0_linear_1431_36)" stroke-width="1.5" stroke-linecap="round" stroke-linejoin="round"/>
<path d="M12.5007 9.16667C12.5007 10.5474 11.3814 11.6667 10.0007 11.6667C8.61994 11.6667 7.50065 10.5474 7.50065 9.16667C7.50065 7.78595 8.61994 6.66667 10.0007 6.66667C11.3814 6.66667 12.5007 7.78595 12.5007 9.16667Z" stroke="url(#paint1_linear_1431_36)" stroke-width="1.5" stroke-linecap="round" stroke-linejoin="round"/>
<defs>
<linearGradient id="paint0_linear_1431_36" x1="5.29131" y1="15.3034" x2="15.825" y2="5.94013" gradientUnits="userSpaceOnUse">
<stop stop-color="#EA347F"/>
<stop offset="0.19" stop-color="#E23080"/>
<stop offset="0.5" stop-color="#CC2484"/>
<stop offset="0.87" stop-color="#A81189"/>
<stop offset="1" stop-color="#9A098B"/>
</linearGradient>
<linearGradient id="paint1_linear_1431_36" x1="5.29131" y1="15.3034" x2="15.825" y2="5.94013" gradientUnits="userSpaceOnUse">
<stop stop-color="#EA347F"/>
<stop offset="0.19" stop-color="#E23080"/>
<stop offset="0.5" stop-color="#CC2484"/>
<stop offset="0.87" stop-color="#A81189"/>
<stop offset="1" stop-color="#9A098B"/>
</linearGradient>
</defs>
</svg>
