<svg width="20" height="20" viewBox="0 0 20 20" fill="none" xmlns="http://www.w3.org/2000/svg">
<path d="M18.3327 2.89248V17.1082C18.3327 17.4332 18.2036 17.7449 17.9737 17.9747C17.7439 18.2045 17.4322 18.3337 17.1072 18.3337H2.89151C2.56649 18.3337 2.25478 18.2045 2.02495 17.9747C1.79513 17.7449 1.66602 17.4332 1.66602 17.1082V2.89248C1.66602 2.56746 1.79513 2.25575 2.02495 2.02593C2.25478 1.79611 2.56649 1.66699 2.89151 1.66699L17.1072 1.66699C17.4322 1.66699 17.7439 1.79611 17.9737 2.02593C18.2036 2.25575 18.3327 2.56746 18.3327 2.89248ZM6.56798 8.03954H4.117V15.8827H6.56798V8.03954ZM6.78856 5.34346C6.78986 5.15807 6.75462 4.97423 6.68486 4.80245C6.6151 4.63067 6.5122 4.47432 6.38201 4.34231C6.25183 4.21031 6.09691 4.10524 5.92612 4.0331C5.75533 3.96097 5.572 3.92318 5.3866 3.92189H5.34249C4.96546 3.92189 4.60388 4.07167 4.33729 4.33826C4.07069 4.60486 3.92092 4.96644 3.92092 5.34346C3.92092 5.72049 4.07069 6.08207 4.33729 6.34866C4.60388 6.61526 4.96546 6.76503 5.34249 6.76503C5.5279 6.76959 5.71239 6.73758 5.88542 6.67081C6.05845 6.60405 6.21663 6.50384 6.35092 6.37592C6.48522 6.24801 6.59299 6.09488 6.66808 5.92529C6.74317 5.75571 6.78411 5.57299 6.78856 5.38758V5.34346ZM15.8817 11.118C15.8817 8.76013 14.3817 7.84346 12.8915 7.84346C12.4036 7.81903 11.9178 7.92295 11.4826 8.14487C11.0473 8.36678 10.6779 8.69892 10.4111 9.10817H10.3425V8.03954H8.03857V15.8827H10.4895V11.7111C10.4541 11.2839 10.5887 10.8599 10.864 10.5313C11.1394 10.2027 11.5333 9.99606 11.9601 9.95621H12.0533C12.8327 9.95621 13.4111 10.4464 13.4111 11.6817V15.8827H15.8621L15.8817 11.118Z" fill="url(#paint0_linear_1432_235)"/>
<defs>
<linearGradient id="paint0_linear_1432_235" x1="4.11267" y1="15.893" x2="15.8981" y2="4.10763" gradientUnits="userSpaceOnUse">
<stop stop-color="#EA347F"/>
<stop offset="0.19" stop-color="#E23080"/>
<stop offset="0.5" stop-color="#CC2484"/>
<stop offset="0.87" stop-color="#A81189"/>
<stop offset="1" stop-color="#9A098B"/>
</linearGradient>
</defs>
</svg>
