<svg width="23" height="23" viewBox="0 0 23 23" fill="none" xmlns="http://www.w3.org/2000/svg">
<path fill-rule="evenodd" clip-rule="evenodd" d="M21.0827 11.5003C21.0827 16.7931 16.7921 21.0837 11.4993 21.0837C6.20662 21.0837 1.91602 16.7931 1.91602 11.5003C1.91602 6.2076 6.20662 1.91699 11.4993 1.91699C16.7921 1.91699 21.0827 6.2076 21.0827 11.5003ZM11.8428 8.99183C10.9106 9.37953 9.04771 10.182 6.25398 11.3992C5.80032 11.5796 5.56267 11.7561 5.54104 11.9286C5.50447 12.2203 5.8697 12.3351 6.36705 12.4915C6.4347 12.5128 6.50479 12.5348 6.57665 12.5582C7.06596 12.7172 7.72417 12.9033 8.06634 12.9107C8.37672 12.9174 8.72315 12.7894 9.10561 12.5268C11.7159 10.7648 13.0633 9.87421 13.1479 9.85501C13.2076 9.84146 13.2903 9.82443 13.3463 9.87423C13.4024 9.92404 13.3969 10.0184 13.3909 10.0437C13.3547 10.1979 11.9211 11.5308 11.1792 12.2205C10.9479 12.4355 10.7838 12.5881 10.7503 12.6229C10.6752 12.7009 10.5986 12.7747 10.525 12.8457C10.0704 13.2839 9.72955 13.6125 10.5439 14.1492C10.9352 14.407 11.2484 14.6203 11.5608 14.8331C11.902 15.0654 12.2423 15.2971 12.6826 15.5858C12.7947 15.6593 12.9019 15.7357 13.0062 15.8101C13.4033 16.0931 13.76 16.3474 14.2007 16.3069C14.4568 16.2833 14.7213 16.0425 14.8556 15.3244C15.1731 13.6271 15.7972 9.94979 15.9414 8.43444C15.954 8.30167 15.9381 8.13176 15.9254 8.05717C15.9126 7.98259 15.8859 7.87632 15.789 7.79765C15.6742 7.70448 15.4969 7.68483 15.4176 7.68616C15.0572 7.69258 14.5042 7.88487 11.8428 8.99183Z" fill="url(#paint0_linear_1432_232)"/>
<defs>
<linearGradient id="paint0_linear_1432_232" x1="4.72967" y1="18.2769" x2="18.2829" y2="4.72372" gradientUnits="userSpaceOnUse">
<stop stop-color="#EA347F"/>
<stop offset="0.19" stop-color="#E23080"/>
<stop offset="0.5" stop-color="#CC2484"/>
<stop offset="0.87" stop-color="#A81189"/>
<stop offset="1" stop-color="#9A098B"/>
</linearGradient>
</defs>
</svg>
