<svg width="23" height="23" viewBox="0 0 23 23" fill="none" xmlns="http://www.w3.org/2000/svg">
<path d="M21.0827 5.67742C20.3778 5.98974 19.6207 6.20077 18.8247 6.29616C19.6367 5.80995 20.2597 5.03842 20.5534 4.12001C19.7937 4.57077 18.9521 4.89829 18.0565 5.07387C17.339 4.31078 16.3176 3.83301 15.1865 3.83301C13.0154 3.83301 11.2546 5.59385 11.2546 7.76662C11.2546 8.07388 11.29 8.3727 11.3558 8.66139C8.08656 8.49679 5.19037 6.93094 3.25057 4.5522C2.91293 5.13465 2.71878 5.80995 2.71878 6.52914C2.71878 7.89324 3.41349 9.09781 4.4678 9.80265C3.82289 9.78155 3.21681 9.60512 2.6867 9.31053V9.36117C2.6867 11.2664 4.04152 12.8558 5.84119 13.2171C5.51029 13.3066 5.16336 13.3539 4.80545 13.3539C4.55221 13.3539 4.30489 13.3302 4.06515 13.2847C4.56572 14.8463 6.01761 15.9842 7.73878 16.0146C6.3924 17.0697 4.69656 17.6986 2.85468 17.6986C2.53729 17.6986 2.22412 17.68 1.91602 17.6437C3.6566 18.7605 5.72301 19.4105 7.94306 19.4105C15.1772 19.4105 19.1319 13.4189 19.1319 8.22245C19.1319 8.05363 19.1277 7.88311 19.1201 7.71429C19.8882 7.15885 20.5551 6.46752 21.081 5.67995L21.0827 5.67742Z" fill="url(#paint0_linear_1432_233)"/>
<defs>
<linearGradient id="paint0_linear_1432_233" x1="4.72967" y1="17.1293" x2="15.5122" y2="3.86234" gradientUnits="userSpaceOnUse">
<stop stop-color="#EA347F"/>
<stop offset="0.19" stop-color="#E23080"/>
<stop offset="0.5" stop-color="#CC2484"/>
<stop offset="0.87" stop-color="#A81189"/>
<stop offset="1" stop-color="#9A098B"/>
</linearGradient>
</defs>
</svg>
